<?xml version="1.0" encoding="UTF-8" standalone="no"?>
<!-- Created with Inkscape (http://www.inkscape.org/) -->

<svg
   width="80.327248mm"
   height="15.453751mm"
   viewBox="0 0 80.327248 15.453751"
   version="1.1"
   id="svg5"
   inkscape:version="1.1.2 (b8e25be8, 2022-02-05)"
   sodipodi:docname="maastricht_law_tech_path.svg"
   xmlns:inkscape="http://www.inkscape.org/namespaces/inkscape"
   xmlns:sodipodi="http://sodipodi.sourceforge.net/DTD/sodipodi-0.dtd"
   xmlns="http://www.w3.org/2000/svg"
   xmlns:svg="http://www.w3.org/2000/svg">
  <sodipodi:namedview
     id="namedview7"
     pagecolor="#ffffff"
     bordercolor="#666666"
     borderopacity="1.0"
     inkscape:pageshadow="2"
     inkscape:pageopacity="0.0"
     inkscape:pagecheckerboard="0"
     inkscape:document-units="mm"
     showgrid="false"
     fit-margin-top="0"
     fit-margin-left="0"
     fit-margin-right="0"
     fit-margin-bottom="0"
     inkscape:zoom="3.5933762"
     inkscape:cx="83.486945"
     inkscape:cy="26.298388"
     inkscape:window-width="1440"
     inkscape:window-height="787"
     inkscape:window-x="0"
     inkscape:window-y="25"
     inkscape:window-maximized="1"
     inkscape:current-layer="g4236" />
  <defs
     id="defs2" />
  <g
     inkscape:label="Layer 1"
     inkscape:groupmode="layer"
     id="layer1"
     transform="translate(-29.989803,-135.27279)">
    <g
       transform="matrix(0.0779973,0,0,0.0779973,28.67078,133.47093)"
       style="fill:#001f3e;fill-opacity:1"
       id="g4249">
      <path
         inkscape:connector-curvature="0"
         style="fill:#001f3e;fill-opacity:1"
         d="m 23.001953,23.101562 v 54.125 l 55.578125,-25.27539 z m 8.355469,18.50586 h 5.167969 v 11.720703 c 0,2 0.611,3.083984 2.75,3.083984 2.083,0 2.75,-0.888656 2.75,-3.222656 V 41.607422 h 5.111328 v 11.304687 c 0,5.444 -3.139969,7.833985 -8.167969,7.833985 -6.028,0 -7.611328,-3.194969 -7.611328,-7.167969 z"
         id="path4210" />
      <path
         inkscape:connector-curvature="0"
         style="fill:#001f3e;fill-opacity:1"
         d="M 89.890625,60.085938 34.324219,88.650391 89.890625,113.99023 Z M 64.660156,77.6875 h 5.398438 L 73.197266,91.146484 76.644531,77.6875 h 5.673828 l 3.800782,18.75 H 81.603516 L 79.197266,83 75.8125,96.4375 H 70.65625 L 67.408203,83 64.660156,96.4375 h -4.630859 z"
         id="path4208" />
    </g>
    <g
       transform="matrix(0.0806452,0,0,0.0806452,27.323305,132.2961)"
       style="fill:#001f3e;fill-opacity:1"
       id="g4236">
      <path
         inkscape:connector-curvature="0"
         style="fill:#001f3e;fill-opacity:1"
         d="M 170.94,88.774 165.21,51.92 h -8.24 l -6.34,19.055 c -0.92,2.73 -1.53,4.805 -2.07,7.644 h -0.11 c -0.49,-2.621 -1.15,-5.132 -2.02,-7.753 L 140.26,51.92 h -8.3 l -5.68,36.854 h 7.21 l 2.07,-16.98 c 0.44,-3.221 0.82,-6.115 1.04,-9.391 h 0.11 c 0.44,2.948 1.37,6.279 2.35,9.282 l 5.62,17.089 h 7.05 l 5.84,-18.509 c 0.93,-2.894 1.53,-5.514 2.02,-7.862 h 0.11 c 0.27,2.566 0.6,5.296 1.14,8.79 l 2.62,17.581 z"
         id="path4206" />
      <path
         inkscape:connector-curvature="0"
         style="fill:#001f3e;fill-opacity:1"
         d="m 186.15039,61.037109 c -3.5,0 -6.9907,0.71036 -9.7207,1.69336 l 0.59961,5.841797 c 2.29,-1.311 5.57148,-2.128907 8.02148,-2.128907 3.93,0 5.29883,1.474454 5.29883,4.314453 v 1.472657 c -9.23,0 -15.66992,3.4405 -15.66992,9.9375 0,4.368 2.84,7.152343 7.75,7.152343 4.04,0 7.36969,-2.129499 8.67969,-5.1875 l 0.0605,0.05469 c -0.22,1.42 -0.26953,3.002937 -0.26953,4.585938 h 6.59961 c -0.11,-2.238 -0.16016,-4.804282 -0.16016,-6.988282 V 70.484377 c 0,-5.897 -2.45945,-9.447266 -11.18945,-9.447266 z m 4.19922,15.726563 v 0.654297 c 0,3.276 -2.34906,6.552734 -5.78906,6.552734 -2.02,0 -3.22071,-1.147531 -3.22071,-2.894531 0,-2.184 1.63977,-4.3125 9.00977,-4.3125 z"
         id="path4204" />
      <path
         inkscape:connector-curvature="0"
         style="fill:#001f3e;fill-opacity:1"
         d="m 214.7207,61.037109 c -3.49,0 -6.9907,0.71036 -9.7207,1.69336 l 0.60938,5.841797 c 2.28999,-1.311 5.56148,-2.128907 8.02148,-2.128907 3.93,0 5.29883,1.474454 5.29883,4.314453 v 1.472657 c -9.23,0 -15.66992,3.4405 -15.66992,9.9375 0,4.368 2.84,7.152343 7.75,7.152343 4.04,0 7.36968,-2.129499 8.67968,-5.1875 l 0.0606,0.05469 c -0.22,1.42 -0.2793,3.002937 -0.2793,4.585938 h 6.60938 c -0.11,-2.238 -0.16016,-4.804282 -0.16016,-6.988282 V 70.484377 c 0,-5.897 -2.45922,-9.447266 -11.19922,-9.447266 z m 4.20899,15.726563 v 0.654297 c 0,3.276 -2.34907,6.552734 -5.78907,6.552734 -2.02,0 -3.2207,-1.147531 -3.2207,-2.894531 0,-2.184 1.63977,-4.3125 9.00977,-4.3125 z"
         id="path4200" />
      <path
         inkscape:connector-curvature="0"
         style="fill:#001f3e;fill-opacity:1"
         d="m 250.34,80.366 c 0,-8.79 -11.13,-6.825 -11.13,-11.247 0,-1.693 1.31,-2.785 4.04,-2.785 1.69,0 3.49,0.273 5.02,0.71 l 0.22,-5.515 c -1.64,-0.273 -3.39,-0.491 -4.97,-0.491 -7.64,0 -11.52,3.931 -11.52,8.681 0,9.227 10.97,6.498 10.97,11.302 0,1.802 -1.74,2.894 -4.42,2.894 -2.07,0 -4.15,-0.382 -5.84,-0.819 l -0.16,5.733 c 1.74,0.273 3.71,0.491 5.67,0.491 7.43,0 12.12,-3.603 12.12,-8.954 z"
         id="path4196" />
      <path
         inkscape:connector-curvature="0"
         style="fill:#001f3e;fill-opacity:1"
         d="m 271.06,88.611 v -5.624 c -0.98,0.273 -2.24,0.437 -3.38,0.437 -2.41,0 -3.23,-0.983 -3.23,-4.478 V 67.044 h 6.61 v -5.405 h -6.61 v -10.21 l -6.98,1.856 v 8.354 h -4.65 v 5.405 h 4.7 v 13.759 c 0,6.333 1.86,8.517 7.86,8.517 1.91,0 3.93,-0.273 5.68,-0.709 z"
         id="path4194" />
      <path
         inkscape:connector-curvature="0"
         style="fill:#001f3e;fill-opacity:1"
         d="m 291.56,61.038 c -4.7,-0.382 -7.32,2.621 -8.63,6.06 h -0.11 c 0.33,-1.91 0.49,-4.094 0.49,-5.459 h -6.6 v 27.135 h 6.99 V 77.691 c 0,-7.535 2.51,-10.811 7.53,-9.774 z"
         id="path4192" />
      <path
         inkscape:connector-curvature="0"
         style="fill:#001f3e;fill-opacity:1"
         d="m 303.92,53.886 c 0,-2.348 -1.97,-4.205 -4.37,-4.205 -2.4,0 -4.31,1.911 -4.31,4.205 0,2.347 1.91,4.258 4.31,4.258 2.4,0 4.37,-1.911 4.37,-4.258 z"
         id="path4190" />
      <path
         inkscape:connector-curvature="0"
         style="fill:#001f3e;fill-opacity:1"
         d="M 303.05,88.774 V 61.639 h -6.99 v 27.135 z"
         id="path4188" />
      <path
         inkscape:connector-curvature="0"
         style="fill:#001f3e;fill-opacity:1"
         d="m 328.29,88.01 -0.54,-5.951 c -1.48,0.764 -3.5,1.146 -5.35,1.146 -4.64,0 -6.45,-3.167 -6.45,-7.807 0,-5.133 2.24,-8.409 6.67,-8.409 1.74,0 3.44,0.437 4.91,0.983 l 0.71,-6.06 c -1.75,-0.492 -3.71,-0.765 -5.57,-0.765 -9.61,0 -14.03,6.497 -14.03,14.96 0,9.228 4.69,13.159 12.23,13.159 2.89,0 5.57,-0.546 7.42,-1.256 z"
         id="path4186" />
      <path
         inkscape:connector-curvature="0"
         style="fill:#001f3e;fill-opacity:1"
         d="M 357.31,88.774 V 69.719 c 0,-4.75 -1.97,-8.681 -8.08,-8.681 -4.21,0 -7.32,2.02 -8.9,5.078 l -0.11,-0.055 c 0.38,-1.583 0.49,-3.876 0.49,-5.514 v -11.63 h -6.99 v 39.857 h 6.99 V 75.671 c 0,-4.751 2.78,-8.791 6.33,-8.791 2.57,0 3.33,1.693 3.33,4.532 v 17.362 z"
         id="path4184" />
      <path
         inkscape:connector-curvature="0"
         style="fill:#001f3e;fill-opacity:1"
         d="m 379.66,88.611 v -5.624 c -0.98,0.273 -2.24,0.437 -3.38,0.437 -2.41,0 -3.22,-0.983 -3.22,-4.478 V 67.044 h 6.6 v -5.405 h -6.6 v -10.21 l -6.99,1.856 v 8.354 h -4.64 v 5.405 h 4.69 v 13.759 c 0,6.333 1.86,8.517 7.86,8.517 1.91,0 3.93,-0.273 5.68,-0.709 z"
         id="path4182" />
    </g>
    <g
       transform="matrix(0.08107378,0,0,0.08107378,27.179385,132.25359)"
       style="fill:#001f3e;fill-opacity:1"
       id="g4222">
      <path
         inkscape:connector-curvature="0"
         style="fill:#001f3e;fill-opacity:1"
         d="M 427.59,74.469 V 51.92 h -7.04 v 22.986 c 0,6.279 -2.3,8.572 -7.76,8.572 -6.11,0 -7.64,-3.276 -7.64,-7.917 V 51.92 h -7.1 v 24.078 c 0,7.043 2.62,13.377 14.25,13.377 9.72,0 15.29,-4.805 15.29,-14.906 z"
         id="path4180" />
      <path
         inkscape:connector-curvature="0"
         style="fill:#001f3e;fill-opacity:1"
         d="M 458.74,88.774 V 69.719 c 0,-4.75 -1.97,-8.681 -8.09,-8.681 -4.42,0 -7.58,2.239 -9.22,5.46 l -0.06,-0.055 c 0.28,-1.419 0.38,-3.549 0.38,-4.804 h -6.6 v 27.135 h 6.99 V 75.671 c 0,-4.751 2.78,-8.791 6.33,-8.791 2.57,0 3.33,1.693 3.33,4.532 v 17.362 z"
         id="path4178" />
      <path
         inkscape:connector-curvature="0"
         style="fill:#001f3e;fill-opacity:1"
         d="m 474.15,53.886 c 0,-2.348 -1.96,-4.205 -4.36,-4.205 -2.41,0 -4.32,1.911 -4.32,4.205 0,2.347 1.91,4.258 4.32,4.258 2.4,0 4.36,-1.911 4.36,-4.258 z"
         id="path4176" />
      <path
         inkscape:connector-curvature="0"
         style="fill:#001f3e;fill-opacity:1"
         d="M 473.28,88.774 V 61.639 h -6.99 v 27.135 z"
         id="path4174" />
      <path
         inkscape:connector-curvature="0"
         style="fill:#001f3e;fill-opacity:1"
         d="m 504.48,61.639 h -7.43 l -4.36,12.448 c -0.66,1.857 -1.2,3.931 -1.64,5.788 h -0.11 c -0.49,-1.966 -1.15,-4.15 -1.8,-6.006 l -4.32,-12.23 h -7.64 l 10.05,27.135 h 7.09 z"
         id="path4172" />
      <path
         inkscape:connector-curvature="0"
         style="fill:#001f3e;fill-opacity:1"
         d="m 519.18945,61.037109 c -8.14,0 -12.71875,6.115063 -12.71875,14.414063 0,9.555 4.79969,13.86914 13.42969,13.86914 3.38,0 6.81875,-0.601046 9.71875,-1.748046 l -0.6582,-5.404297 c -2.34,1.092 -5.24016,1.691406 -7.91016,1.691406 -5.03,0 -7.54047,-2.456203 -7.48047,-7.533203 h 16.81055 c 0.17,-1.147 0.21875,-2.239969 0.21875,-3.167969 0,-6.716 -3.49016,-12.121094 -11.41016,-12.121094 z m -0.21875,5.132813 c 2.95,0 4.80922,2.02025 4.69922,5.40625 h -9.99023 c 0.38,-3.276 2.40101,-5.40625 5.29101,-5.40625 z"
         id="path4170" />
      <path
         inkscape:connector-curvature="0"
         style="fill:#001f3e;fill-opacity:1"
         d="m 551.26,61.038 c -4.69,-0.382 -7.31,2.621 -8.62,6.06 h -0.11 c 0.32,-1.91 0.49,-4.094 0.49,-5.459 h -6.61 v 27.135 h 6.99 V 77.691 c 0,-7.535 2.51,-10.811 7.53,-9.774 z"
         id="path4166" />
      <path
         inkscape:connector-curvature="0"
         style="fill:#001f3e;fill-opacity:1"
         d="m 572.58,80.366 c 0,-8.79 -11.14,-6.825 -11.14,-11.247 0,-1.693 1.31,-2.785 4.04,-2.785 1.69,0 3.49,0.273 5.02,0.71 l 0.22,-5.515 c -1.64,-0.273 -3.38,-0.491 -4.97,-0.491 -7.64,0 -11.52,3.931 -11.52,8.681 0,9.227 10.98,6.498 10.98,11.302 0,1.802 -1.75,2.894 -4.43,2.894 -2.07,0 -4.14,-0.382 -5.84,-0.819 l -0.16,5.733 c 1.75,0.273 3.71,0.491 5.68,0.491 7.42,0 12.12,-3.603 12.12,-8.954 z"
         id="path4164" />
      <path
         inkscape:connector-curvature="0"
         style="fill:#001f3e;fill-opacity:1"
         d="m 586.36,53.886 c 0,-2.348 -1.97,-4.205 -4.37,-4.205 -2.4,0 -4.31,1.911 -4.31,4.205 0,2.347 1.91,4.258 4.31,4.258 2.4,0 4.37,-1.911 4.37,-4.258 z"
         id="path4162" />
      <path
         inkscape:connector-curvature="0"
         style="fill:#001f3e;fill-opacity:1"
         d="M 585.49,88.774 V 61.639 h -6.99 v 27.135 z"
         id="path4160" />
      <path
         inkscape:connector-curvature="0"
         style="fill:#001f3e;fill-opacity:1"
         d="m 607.79,88.611 v -5.624 c -0.99,0.273 -2.24,0.437 -3.39,0.437 -2.4,0 -3.22,-0.983 -3.22,-4.478 V 67.044 h 6.61 v -5.405 h -6.61 v -10.21 l -6.99,1.856 v 8.354 h -4.64 v 5.405 h 4.69 v 13.759 c 0,6.333 1.86,8.517 7.87,8.517 1.91,0 3.93,-0.273 5.68,-0.709 z"
         id="path4158" />
      <path
         inkscape:connector-curvature="0"
         style="fill:#001f3e;fill-opacity:1"
         d="m 636.91,61.639 h -7.48 l -3.22,9.227 c -0.88,2.566 -2.02,6.17 -2.62,8.626 h -0.06 c -0.6,-2.456 -1.31,-5.132 -2.13,-7.48 l -3.65,-10.373 h -7.76 l 9.99,27.135 -0.92,2.621 c -1.42,4.04 -2.95,5.078 -5.25,5.078 -1.31,0 -2.45,-0.219 -3.71,-0.601 l -0.44,6.008 c 1.15,0.27 2.63,0.43 3.83,0.43 6.22,0 9.06,-2.561 12.28,-11.024 z"
         id="path6" />
    </g>
    <g
       aria-label="Maastricht Law and Tech Lab"
       id="text8040"
       style="font-size:4.93889px;line-height:1.25;font-family:'TheSans LT';-inkscape-font-specification:'TheSans LT';letter-spacing:0.1905px;fill:#001f3e;stroke-width:0.264583">
      <path
         d="m 45.979678,149.57277 -0.202495,-1.63971 q -0.03457,-0.28152 -0.05433,-0.56797 -0.01976,-0.2914 -0.0247,-0.51859 h -0.0099 q -0.04445,0.22225 -0.108655,0.45438 -0.05927,0.23213 -0.138289,0.47413 l -0.602545,1.79776 h -0.597605 l -0.577851,-1.72861 q -0.07408,-0.22719 -0.153105,-0.51365 -0.07902,-0.28645 -0.118533,-0.48401 h -0.0099 q -0.0049,0.21731 -0.0247,0.50377 -0.01482,0.28645 -0.04445,0.5976 l -0.172861,1.6249 h -0.6223 l 0.40005,-3.33375 h 0.893939 l 0.582789,1.72861 q 0.04939,0.14817 0.09384,0.32597 0.04939,0.1778 0.07902,0.35066 h 0.0099 q 0.03951,-0.2025 0.07902,-0.37042 0.03951,-0.17286 0.08396,-0.30621 l 0.582789,-1.72861 h 0.903817 l 0.409928,3.33375 z"
         style="font-weight:bold;-inkscape-font-specification:'TheSans LT Bold'"
         id="path124" />
      <path
         d="m 48.587687,148.48127 q -0.232128,0 -0.390172,0.0296 -0.158045,0.0247 -0.251884,0.0741 -0.0889,0.0494 -0.128411,0.11853 -0.03951,0.0642 -0.03951,0.14817 0,0.12347 0.07902,0.20743 0.08396,0.079 0.217311,0.079 0.108656,0 0.202495,-0.0494 0.09878,-0.0494 0.167922,-0.13335 0.06914,-0.084 0.103717,-0.18768 0.03951,-0.10372 0.03951,-0.21237 z m 0.04939,1.0915 q 0,-0.11853 0.0049,-0.22225 0.0049,-0.10372 0.01975,-0.19262 l -0.0049,-0.005 q -0.0889,0.21238 -0.301272,0.34079 -0.212372,0.12841 -0.484011,0.12841 -0.325967,0 -0.513645,-0.19756 -0.187677,-0.19755 -0.187677,-0.50376 0,-0.21732 0.09878,-0.37536 0.09878,-0.16298 0.281517,-0.2667 0.187678,-0.10866 0.449439,-0.15804 0.261761,-0.0543 0.587728,-0.0543 v -0.10372 q 0,-0.21731 -0.103717,-0.31609 -0.09878,-0.0988 -0.335844,-0.0988 -0.162984,0 -0.365478,0.0445 -0.197556,0.0444 -0.380295,0.11854 l -0.09878,-0.47907 q 0.22225,-0.0741 0.464255,-0.11854 0.242006,-0.0494 0.454378,-0.0494 0.281517,0 0.474134,0.0593 0.192616,0.0543 0.306211,0.16792 0.118533,0.10866 0.167922,0.2667 0.04939,0.15805 0.04939,0.37042 v 1.01247 q 0,0.16298 0.0049,0.32597 0.0049,0.16298 0.01482,0.30621 z"
         style="font-weight:bold;-inkscape-font-specification:'TheSans LT Bold'"
         id="path126" />
      <path
         d="m 51.363388,148.48127 q -0.232128,0 -0.390173,0.0296 -0.158044,0.0247 -0.251883,0.0741 -0.0889,0.0494 -0.128411,0.11853 -0.03951,0.0642 -0.03951,0.14817 0,0.12347 0.07902,0.20743 0.08396,0.079 0.217311,0.079 0.108656,0 0.202495,-0.0494 0.09878,-0.0494 0.167922,-0.13335 0.06914,-0.084 0.103716,-0.18768 0.03951,-0.10372 0.03951,-0.21237 z m 0.04939,1.0915 q 0,-0.11853 0.0049,-0.22225 0.0049,-0.10372 0.01976,-0.19262 l -0.0049,-0.005 q -0.0889,0.21238 -0.301272,0.34079 -0.212373,0.12841 -0.484011,0.12841 -0.325967,0 -0.513645,-0.19756 -0.187678,-0.19755 -0.187678,-0.50376 0,-0.21732 0.09878,-0.37536 0.09878,-0.16298 0.281517,-0.2667 0.187677,-0.10866 0.449439,-0.15804 0.261761,-0.0543 0.587728,-0.0543 v -0.10372 q 0,-0.21731 -0.103717,-0.31609 -0.09878,-0.0988 -0.335845,-0.0988 -0.162983,0 -0.365477,0.0445 -0.197556,0.0444 -0.380295,0.11854 l -0.09878,-0.47907 q 0.22225,-0.0741 0.464256,-0.11854 0.242005,-0.0494 0.454378,-0.0494 0.281516,0 0.474133,0.0593 0.192617,0.0543 0.306211,0.16792 0.118534,0.10866 0.167923,0.2667 0.04939,0.15805 0.04939,0.37042 v 1.01247 q 0,0.16298 0.0049,0.32597 0.0049,0.16298 0.01482,0.30621 z"
         style="font-weight:bold;-inkscape-font-specification:'TheSans LT Bold'"
         id="path128" />
      <path
         d="m 54.400849,148.82206 q 0,0.17286 -0.06914,0.32103 -0.06421,0.14322 -0.202495,0.25188 -0.13335,0.10865 -0.335844,0.16792 -0.197556,0.0593 -0.459317,0.0593 -0.148167,0 -0.296333,-0.0198 -0.148167,-0.0148 -0.2667,-0.0444 l 0.03457,-0.52352 q 0.113594,0.0445 0.2667,0.0741 0.153105,0.0247 0.291394,0.0247 0.182739,0 0.281517,-0.0642 0.09878,-0.0691 0.09878,-0.18768 0,-0.0988 -0.06914,-0.15804 -0.06421,-0.0642 -0.187677,-0.11359 -0.118534,-0.0494 -0.256823,-0.10372 -0.138289,-0.0543 -0.246944,-0.13335 -0.108656,-0.079 -0.1778,-0.21237 -0.06914,-0.13335 -0.06914,-0.32597 0,-0.16298 0.06421,-0.30127 0.06421,-0.13829 0.192617,-0.24201 0.128411,-0.10865 0.321028,-0.16792 0.197555,-0.0593 0.454377,-0.0593 0.103717,0 0.217312,0.0148 0.118533,0.01 0.237066,0.0296 l -0.03457,0.49883 q -0.108656,-0.0296 -0.22225,-0.0494 -0.113594,-0.0198 -0.227189,-0.0198 -0.172861,0 -0.2667,0.0642 -0.0889,0.0642 -0.0889,0.17286 0,0.0938 0.06421,0.15805 0.06914,0.0593 0.192616,0.10865 0.123473,0.0494 0.261761,0.10866 0.143228,0.0593 0.251884,0.14323 0.108655,0.079 0.1778,0.20743 0.06914,0.12841 0.06914,0.32103 z"
         style="font-weight:bold;-inkscape-font-specification:'TheSans LT Bold'"
         id="path130" />
      <path
         d="m 56.492668,149.55301 q -0.123473,0.0296 -0.2667,0.0494 -0.143228,0.0198 -0.256823,0.0198 -0.207433,0 -0.345722,-0.0445 -0.138289,-0.0395 -0.22225,-0.12841 -0.07902,-0.0889 -0.118533,-0.23707 -0.03457,-0.14817 -0.03457,-0.37536 v -1.22978 h -0.419805 v -0.48895 h 0.419805 v -0.75565 l 0.632178,-0.16792 v 0.92357 h 0.587728 v 0.48895 h -0.587728 v 1.11125 q 0,0.21731 0.05927,0.29633 0.05927,0.079 0.217311,0.079 0.143228,0 0.291395,-0.0346 z"
         style="font-weight:bold;-inkscape-font-specification:'TheSans LT Bold'"
         id="path132" />
      <path
         d="m 58.485862,147.68611 q -0.681567,-0.13335 -0.681567,0.88406 v 1.0026 h -0.632177 v -2.45463 h 0.597605 q 0,0.0988 -0.01482,0.23707 -0.0099,0.13335 -0.02963,0.25682 h 0.0099 q 0.04939,-0.12347 0.113594,-0.22719 0.06914,-0.10372 0.162984,-0.1778 0.09878,-0.079 0.22225,-0.11359 0.128411,-0.0395 0.281517,-0.0247 z"
         style="font-weight:bold;-inkscape-font-specification:'TheSans LT Bold'"
         id="path134" />
      <path
         d="m 59.118238,149.57277 v -2.45463 h 0.632178 v 2.45463 z m 0.7112,-3.2004 q 0,0.15804 -0.118533,0.27164 -0.113595,0.10865 -0.276578,0.10865 -0.162984,0 -0.276578,-0.10865 -0.113595,-0.1136 -0.113595,-0.27164 0,-0.15805 0.113595,-0.27164 0.113594,-0.11359 0.276578,-0.11359 0.162983,0 0.276578,0.11359 0.118533,0.10866 0.118533,0.27164 z"
         style="font-weight:bold;-inkscape-font-specification:'TheSans LT Bold'"
         id="path136" />
      <path
         d="m 62.245526,149.50362 q -0.143227,0.0543 -0.325966,0.084 -0.182739,0.0296 -0.365478,0.0296 -0.256823,0 -0.464256,-0.0692 -0.202494,-0.0691 -0.345722,-0.21237 -0.143228,-0.14323 -0.22225,-0.37041 -0.07408,-0.22719 -0.07408,-0.53834 0,-0.28646 0.07408,-0.5334 0.07902,-0.24695 0.232128,-0.42969 0.153105,-0.18274 0.385233,-0.28645 0.237067,-0.10372 0.558095,-0.10372 0.143227,0 0.281516,0.0247 0.138289,0.0198 0.256823,0.0593 l -0.09878,0.54328 q -0.09878,-0.0395 -0.217311,-0.0642 -0.118534,-0.0296 -0.242006,-0.0296 -0.281517,0 -0.424745,0.20743 -0.143227,0.20744 -0.143227,0.54822 0,0.15805 0.02963,0.2914 0.02963,0.12841 0.09878,0.22225 0.06914,0.0938 0.1778,0.14816 0.108655,0.0494 0.2667,0.0494 0.256822,0 0.479072,-0.0988 l 0.08396,0.52846 z"
         style="font-weight:bold;-inkscape-font-specification:'TheSans LT Bold'"
         id="path138" />
      <path
         d="m 64.420379,149.57277 v -1.57057 q 0,-0.20249 -0.06914,-0.30127 -0.06915,-0.10372 -0.237067,-0.10372 -0.118533,0 -0.22225,0.0642 -0.103717,0.0593 -0.182739,0.17286 -0.07408,0.10866 -0.118533,0.25682 -0.04445,0.14323 -0.04445,0.30127 v 1.1804 h -0.632178 v -3.60539 h 0.632178 v 1.05692 q 0,0.12841 -0.0099,0.26176 -0.0099,0.13335 -0.03457,0.23707 h 0.0099 q 0.108655,-0.21237 0.316089,-0.33091 0.212372,-0.12347 0.48895,-0.12347 0.202494,0 0.340783,0.0593 0.143228,0.0593 0.227189,0.16792 0.0889,0.10372 0.123472,0.24695 0.03951,0.13828 0.03951,0.30621 v 1.72367 z"
         style="font-weight:bold;-inkscape-font-specification:'TheSans LT Bold'"
         id="path140" />
      <path
         d="m 67.245778,149.55301 q -0.123473,0.0296 -0.2667,0.0494 -0.143228,0.0198 -0.256823,0.0198 -0.207433,0 -0.345722,-0.0445 -0.138289,-0.0395 -0.22225,-0.12841 -0.07902,-0.0889 -0.118533,-0.23707 -0.03457,-0.14817 -0.03457,-0.37536 v -1.22978 h -0.419805 v -0.48895 h 0.419805 v -0.75565 l 0.632178,-0.16792 v 0.92357 h 0.587728 v 0.48895 h -0.587728 v 1.11125 q 0,0.21731 0.05927,0.29633 0.05927,0.079 0.217311,0.079 0.143228,0 0.291395,-0.0346 z"
         style="font-weight:bold;-inkscape-font-specification:'TheSans LT Bold'"
         id="path142" />
      <path
         d="m 69.201048,149.57277 v -3.33375 h 0.642056 v 2.77565 h 1.081617 v 0.5581 z"
         style="font-weight:bold;-inkscape-font-specification:'TheSans LT Bold'"
         id="path144" />
      <path
         d="m 72.773144,148.48127 q -0.232128,0 -0.390172,0.0296 -0.158045,0.0247 -0.251883,0.0741 -0.0889,0.0494 -0.128412,0.11853 -0.03951,0.0642 -0.03951,0.14817 0,0.12347 0.07902,0.20743 0.08396,0.079 0.217311,0.079 0.108655,0 0.202494,-0.0494 0.09878,-0.0494 0.167922,-0.13335 0.06915,-0.084 0.103717,-0.18768 0.03951,-0.10372 0.03951,-0.21237 z m 0.04939,1.0915 q 0,-0.11853 0.0049,-0.22225 0.0049,-0.10372 0.01976,-0.19262 l -0.0049,-0.005 q -0.0889,0.21238 -0.301273,0.34079 -0.212372,0.12841 -0.484011,0.12841 -0.325967,0 -0.513644,-0.19756 -0.187678,-0.19755 -0.187678,-0.50376 0,-0.21732 0.09878,-0.37536 0.09878,-0.16298 0.281516,-0.2667 0.187678,-0.10866 0.449439,-0.15804 0.261761,-0.0543 0.587728,-0.0543 v -0.10372 q 0,-0.21731 -0.103716,-0.31609 -0.09878,-0.0988 -0.335845,-0.0988 -0.162983,0 -0.365478,0.0445 -0.197555,0.0444 -0.380294,0.11854 l -0.09878,-0.47907 q 0.22225,-0.0741 0.464255,-0.11854 0.242006,-0.0494 0.454378,-0.0494 0.281517,0 0.474134,0.0593 0.192617,0.0543 0.306211,0.16792 0.118533,0.10866 0.167922,0.2667 0.04939,0.15805 0.04939,0.37042 v 1.01247 q 0,0.16298 0.0049,0.32597 0.0049,0.16298 0.01482,0.30621 z"
         style="font-weight:bold;-inkscape-font-specification:'TheSans LT Bold'"
         id="path146" />
      <path
         d="m 77.036145,149.57277 h -0.706261 l -0.350662,-1.11619 q -0.03951,-0.14817 -0.07408,-0.29139 -0.03457,-0.14817 -0.05927,-0.28152 h -0.0049 q -0.02963,0.14323 -0.06914,0.29139 -0.03457,0.14817 -0.0889,0.3556 l -0.306211,1.04211 H 74.70005 l -0.735895,-2.45463 h 0.696384 l 0.276578,1.02235 q 0,0 0.06914,0.28646 0.07408,0.28645 0.09878,0.41486 h 0.0049 q 0.03457,-0.17286 0.07408,-0.3556 0.04445,-0.18767 0.0889,-0.35066 l 0.306211,-1.01741 h 0.627239 l 0.31115,1.01741 q 0.05927,0.21237 0.09878,0.3803 0.04445,0.16792 0.07408,0.3309 h 0.0099 q 0.0247,-0.15804 0.06421,-0.31609 0.03951,-0.16298 0.09878,-0.39017 l 0.286455,-1.02235 h 0.642056 z"
         style="font-weight:bold;-inkscape-font-specification:'TheSans LT Bold'"
         id="path148" />
      <path
         d="m 80.916968,148.48127 q -0.232128,0 -0.390172,0.0296 -0.158045,0.0247 -0.251884,0.0741 -0.0889,0.0494 -0.128411,0.11853 -0.03951,0.0642 -0.03951,0.14817 0,0.12347 0.07902,0.20743 0.08396,0.079 0.217311,0.079 0.108656,0 0.202495,-0.0494 0.09878,-0.0494 0.167922,-0.13335 0.06914,-0.084 0.103717,-0.18768 0.03951,-0.10372 0.03951,-0.21237 z m 0.04939,1.0915 q 0,-0.11853 0.0049,-0.22225 0.0049,-0.10372 0.01976,-0.19262 l -0.0049,-0.005 q -0.0889,0.21238 -0.301272,0.34079 -0.212372,0.12841 -0.484011,0.12841 -0.325967,0 -0.513645,-0.19756 -0.187678,-0.19755 -0.187678,-0.50376 0,-0.21732 0.09878,-0.37536 0.09878,-0.16298 0.281517,-0.2667 0.187678,-0.10866 0.449439,-0.15804 0.261761,-0.0543 0.587728,-0.0543 v -0.10372 q 0,-0.21731 -0.103717,-0.31609 -0.09878,-0.0988 -0.335844,-0.0988 -0.162984,0 -0.365478,0.0445 -0.197556,0.0444 -0.380295,0.11854 l -0.09878,-0.47907 q 0.222251,-0.0741 0.464256,-0.11854 0.242006,-0.0494 0.454378,-0.0494 0.281517,0 0.474133,0.0593 0.192617,0.0543 0.306212,0.16792 0.118533,0.10866 0.167922,0.2667 0.04939,0.15805 0.04939,0.37042 v 1.01247 q 0,0.16298 0.0049,0.32597 0.0049,0.16298 0.01482,0.30621 z"
         style="font-weight:bold;-inkscape-font-specification:'TheSans LT Bold'"
         id="path150" />
      <path
         d="m 83.934673,149.57277 v -1.57057 q 0,-0.20249 -0.06914,-0.30127 -0.06914,-0.10372 -0.237067,-0.10372 -0.118533,0 -0.22225,0.0642 -0.103717,0.0593 -0.182739,0.17286 -0.07408,0.10866 -0.118533,0.25188 -0.04445,0.14323 -0.04445,0.30128 v 1.18533 h -0.632178 v -2.45463 h 0.597605 q 0,0.0988 -0.0099,0.22719 -0.0099,0.12347 -0.0247,0.21237 h 0.0049 q 0.113594,-0.22225 0.325967,-0.3556 0.217311,-0.13335 0.508705,-0.13335 0.202495,0 0.340784,0.0593 0.143228,0.0593 0.227189,0.16792 0.0889,0.10372 0.123472,0.24695 0.03951,0.13828 0.03951,0.30621 v 1.72367 z"
         style="font-weight:bold;-inkscape-font-specification:'TheSans LT Bold'"
         id="path152" />
      <path
         d="m 86.882616,147.61203 q -0.0889,-0.0198 -0.172861,-0.0296 -0.07902,-0.01 -0.158044,-0.01 -0.286456,0 -0.454378,0.20249 -0.162984,0.19756 -0.162984,0.63218 0,0.69638 0.419806,0.69638 0.118533,0 0.217311,-0.0642 0.09878,-0.0642 0.167922,-0.1778 0.06914,-0.1136 0.103717,-0.25682 0.03951,-0.14817 0.03951,-0.30621 z m 0.03951,1.96074 q 0,-0.0938 0.0049,-0.2025 0.0099,-0.10865 0.0247,-0.20743 h -0.0099 q -0.103717,0.21237 -0.306211,0.34078 -0.202495,0.12348 -0.469195,0.12348 -0.439561,0 -0.66675,-0.30621 -0.227189,-0.30622 -0.227189,-0.84455 0,-0.31115 0.0889,-0.56798 0.0889,-0.25682 0.256822,-0.4445 0.167923,-0.18767 0.409928,-0.28645 0.242006,-0.10372 0.543278,-0.10372 0.08396,0 0.158045,0.005 0.07408,0.005 0.153105,0.0148 v -1.12607 h 0.627239 v 3.60539 z"
         style="font-weight:bold;-inkscape-font-specification:'TheSans LT Bold'"
         id="path154" />
      <path
         d="m 90.76035,146.78724 v 2.78553 h -0.642056 v -2.78553 h -0.864306 v -0.54822 h 2.370667 v 0.54822 z"
         style="font-weight:bold;-inkscape-font-specification:'TheSans LT Bold'"
         id="path156" />
      <path
         d="m 93.225904,148.05653 q 0.0049,-0.25188 -0.108655,-0.38523 -0.113595,-0.13829 -0.316089,-0.13829 -0.197556,0 -0.330906,0.13829 -0.13335,0.13829 -0.153106,0.38523 z m 0.627239,0.0543 q 0,0.11853 -0.0099,0.22225 -0.0049,0.10371 -0.0099,0.14816 H 92.31221 q 0,0.65194 0.651933,0.65194 0.3556,0 0.740834,-0.12841 l 0.06421,0.46919 q -0.207433,0.0692 -0.439561,0.10866 -0.227189,0.0395 -0.439561,0.0395 -0.597606,0 -0.908756,-0.30621 -0.31115,-0.31115 -0.31115,-0.94827 0,-0.27658 0.07902,-0.51364 0.07902,-0.23707 0.232128,-0.41487 0.153106,-0.1778 0.370417,-0.27164 0.217311,-0.0988 0.484011,-0.0988 0.261761,0 0.454378,0.079 0.197555,0.079 0.321028,0.22225 0.123472,0.13829 0.182739,0.33091 0.05927,0.18768 0.05927,0.40993 z"
         style="font-weight:bold;-inkscape-font-specification:'TheSans LT Bold'"
         id="path158" />
      <path
         d="m 96.195376,149.50362 q -0.143227,0.0543 -0.325966,0.084 -0.182739,0.0296 -0.365478,0.0296 -0.256822,0 -0.464256,-0.0692 -0.202494,-0.0691 -0.345722,-0.21237 -0.143228,-0.14323 -0.22225,-0.37041 -0.07408,-0.22719 -0.07408,-0.53834 0,-0.28646 0.07408,-0.5334 0.07902,-0.24695 0.232128,-0.42969 0.153105,-0.18274 0.385233,-0.28645 0.237067,-0.10372 0.558095,-0.10372 0.143227,0 0.281516,0.0247 0.138289,0.0198 0.256823,0.0593 l -0.09878,0.54328 q -0.09878,-0.0395 -0.217311,-0.0642 -0.118534,-0.0296 -0.242006,-0.0296 -0.281517,0 -0.424744,0.20743 -0.143228,0.20744 -0.143228,0.54822 0,0.15805 0.02963,0.2914 0.02963,0.12841 0.09878,0.22225 0.06914,0.0938 0.1778,0.14816 0.108655,0.0494 0.2667,0.0494 0.256822,0 0.479072,-0.0988 l 0.08396,0.52846 z"
         style="font-weight:bold;-inkscape-font-specification:'TheSans LT Bold'"
         id="path160" />
      <path
         d="m 98.370231,149.57277 v -1.57057 q 0,-0.20249 -0.06914,-0.30127 -0.06914,-0.10372 -0.237067,-0.10372 -0.118533,0 -0.22225,0.0642 -0.103717,0.0593 -0.182739,0.17286 -0.07408,0.10866 -0.118533,0.25682 -0.04445,0.14323 -0.04445,0.30127 v 1.1804 H 96.86387 v -3.60539 h 0.632178 v 1.05692 q 0,0.12841 -0.0099,0.26176 -0.0099,0.13335 -0.03457,0.23707 h 0.0099 q 0.108655,-0.21237 0.316089,-0.33091 0.212372,-0.12347 0.48895,-0.12347 0.202494,0 0.340783,0.0593 0.143228,0.0593 0.227189,0.16792 0.0889,0.10372 0.123472,0.24695 0.03951,0.13828 0.03951,0.30621 v 1.72367 z"
         style="font-weight:bold;-inkscape-font-specification:'TheSans LT Bold'"
         id="path162" />
      <path
         d="m 101.1469,149.57277 v -3.33375 h 0.64206 v 2.77565 h 1.08161 v 0.5581 z"
         style="font-weight:bold;-inkscape-font-specification:'TheSans LT Bold'"
         id="path164" />
      <path
         d="m 104.719,148.48127 q -0.23213,0 -0.39018,0.0296 -0.15804,0.0247 -0.25188,0.0741 -0.0889,0.0494 -0.12841,0.11853 -0.0395,0.0642 -0.0395,0.14817 0,0.12347 0.079,0.20743 0.084,0.079 0.21731,0.079 0.10866,0 0.2025,-0.0494 0.0988,-0.0494 0.16792,-0.13335 0.0691,-0.084 0.10372,-0.18768 0.0395,-0.10372 0.0395,-0.21237 z m 0.0494,1.0915 q 0,-0.11853 0.005,-0.22225 0.005,-0.10372 0.0198,-0.19262 l -0.005,-0.005 q -0.0889,0.21238 -0.30127,0.34079 -0.21237,0.12841 -0.48401,0.12841 -0.32597,0 -0.51365,-0.19756 -0.18767,-0.19755 -0.18767,-0.50376 0,-0.21732 0.0988,-0.37536 0.0988,-0.16298 0.28152,-0.2667 0.18768,-0.10866 0.44944,-0.15804 0.26176,-0.0543 0.58773,-0.0543 v -0.10372 q 0,-0.21731 -0.10372,-0.31609 -0.0988,-0.0988 -0.33584,-0.0988 -0.16299,0 -0.36548,0.0445 -0.19756,0.0444 -0.3803,0.11854 l -0.0988,-0.47907 q 0.22225,-0.0741 0.46425,-0.11854 0.24201,-0.0494 0.45438,-0.0494 0.28152,0 0.47413,0.0593 0.19262,0.0543 0.30621,0.16792 0.11854,0.10866 0.16793,0.2667 0.0494,0.15805 0.0494,0.37042 v 1.01247 q 0,0.16298 0.005,0.32597 0.005,0.16298 0.0148,0.30621 z"
         style="font-weight:bold;-inkscape-font-specification:'TheSans LT Bold'"
         id="path166" />
      <path
         d="m 107.81079,148.28372 q 0,-0.69145 -0.41981,-0.69145 -0.12347,0 -0.22225,0.0691 -0.0988,0.0642 -0.16792,0.17286 -0.0642,0.10866 -0.10372,0.25188 -0.0346,0.14323 -0.0346,0.29634 v 0.69144 q 0.13335,0.0445 0.33091,0.0445 0.13335,0 0.24694,-0.0445 0.1136,-0.0444 0.19262,-0.14323 0.084,-0.10371 0.12841,-0.26176 0.0494,-0.15804 0.0494,-0.38523 z m 0.66181,-0.0642 q 0,0.31115 -0.0889,0.57291 -0.0889,0.25683 -0.26176,0.4445 -0.16792,0.18274 -0.41487,0.28646 -0.24694,0.0988 -0.56303,0.0988 -0.2667,0 -0.48401,-0.0296 -0.21731,-0.0296 -0.42969,-0.0889 v -3.53624 h 0.63218 v 1.05692 q 0,0.1136 -0.01,0.24695 -0.01,0.13335 -0.0296,0.23212 h 0.005 q 0.0938,-0.20249 0.28646,-0.31608 0.19755,-0.11854 0.45437,-0.11854 0.4445,0 0.67169,0.30127 0.23213,0.30128 0.23213,0.84949 z"
         style="font-weight:bold;-inkscape-font-specification:'TheSans LT Bold'"
         id="path168" />
    </g>
    <path
       style="fill:none;stroke:#000000;stroke-width:0.264583px;stroke-linecap:butt;stroke-linejoin:miter;stroke-opacity:1"
       d="m 29.989803,143.17355 h 80.194957 v 7.55299"
       id="path41743" />
  </g>
</svg>
